<svg width="25" height="25" viewBox="0 0 25 25" fill="none" xmlns="http://www.w3.org/2000/svg">
<path d="M12.5 0.166687C14.1355 0.166687 15.704 0.816387 16.8605 1.97286C18.017 3.12934 18.6667 4.69785 18.6667 6.33335C18.6667 7.96886 18.017 9.53737 16.8605 10.6938C15.704 11.8503 14.1355 12.5 12.5 12.5C10.8645 12.5 9.29598 11.8503 8.13951 10.6938C6.98303 9.53737 6.33333 7.96886 6.33333 6.33335C6.33333 4.69785 6.98303 3.12934 8.13951 1.97286C9.29598 0.816387 10.8645 0.166687 12.5 0.166687ZM12.5 15.5834C19.3142 15.5834 24.8333 18.3429 24.8333 21.75V24.8334H0.166664V21.75C0.166664 18.3429 5.68583 15.5834 12.5 15.5834Z" fill="#fefefe"/>
</svg>
