<svg width="32" height="31" viewBox="0 0 32 31" fill="none" xmlns="http://www.w3.org/2000/svg">
<path d="M25.2083 24.75C23.4971 24.75 22.125 26.1221 22.125 27.8333C22.125 28.6511 22.4498 29.4353 23.0281 30.0136C23.6063 30.5918 24.3906 30.9166 25.2083 30.9166C26.0261 30.9166 26.8103 30.5918 27.3886 30.0136C27.9668 29.4353 28.2917 28.6511 28.2917 27.8333C28.2917 27.0156 27.9668 26.2313 27.3886 25.6531C26.8103 25.0748 26.0261 24.75 25.2083 24.75ZM0.541664 0.083313V3.16665H3.625L9.175 14.8679L7.07833 18.645C6.84708 19.0766 6.70833 19.5854 6.70833 20.125C6.70833 20.9427 7.03318 21.727 7.61142 22.3052C8.18966 22.8835 8.97391 23.2083 9.79166 23.2083H28.2917V20.125H10.4392C10.3369 20.125 10.2389 20.0844 10.1666 20.0121C10.0944 19.9398 10.0537 19.8418 10.0537 19.7396C10.0537 19.6625 10.0692 19.6008 10.1 19.5546L11.4875 17.0416H22.9729C24.1292 17.0416 25.1467 16.3941 25.6708 15.4537L31.19 5.47915C31.2979 5.23248 31.375 4.9704 31.375 4.70831C31.375 4.29944 31.2126 3.90731 30.9235 3.61819C30.6343 3.32907 30.2422 3.16665 29.8333 3.16665H7.03208L5.58291 0.083313M9.79166 24.75C8.08041 24.75 6.70833 26.1221 6.70833 27.8333C6.70833 28.6511 7.03318 29.4353 7.61142 30.0136C8.18966 30.5918 8.97391 30.9166 9.79166 30.9166C10.6094 30.9166 11.3937 30.5918 11.9719 30.0136C12.5501 29.4353 12.875 28.6511 12.875 27.8333C12.875 27.0156 12.5501 26.2313 11.9719 25.6531C11.3937 25.0748 10.6094 24.75 9.79166 24.75Z" fill="#fefefe"/>
</svg>
